HIERARCHY
ROOT Hips
{
	OFFSET 0.00000 0.00000 0.00000
	CHANNELS 6 Xposition Yposition Zposition Zrotation Yrotation Xrotation 
	JOINT LHipJoint
	{
		OFFSET 0 0 0
		CHANNELS 3 Zrotation Yrotation Xrotation
		JOINT LeftHip
		{
			OFFSET 1.59801 -1.77853 0.57028
			CHANNELS 3 Zrotation Yrotation Xrotation
			JOINT LeftKnee
			{
				OFFSET 2.39439 -6.57854 0.00000
				CHANNELS 3 Zrotation Yrotation Xrotation
				JOINT LeftAnkle
				{
					OFFSET 2.69334 -7.39989 0.00000
					CHANNELS 3 Zrotation Yrotation Xrotation
					JOINT LeftToe
					{
						OFFSET 0.09553 -0.26245 1.73747
						CHANNELS 3 Zrotation Yrotation Xrotation
						End Site
						{
							OFFSET 0.00000 -0.00000 0.89391
						}
					}
				}
			}
		}
	}
	JOINT RHipJoint
	{
		OFFSET 0 0 0
		CHANNELS 3 Zrotation Yrotation Xrotation
		JOINT RightHip
		{
			OFFSET -1.54704 -1.77852 0.57028
			CHANNELS 3 Zrotation Yrotation Xrotation
			JOINT RightKnee
			{
				OFFSET -2.40286 -6.60180 0.00000
				CHANNELS 3 Zrotation Yrotation Xrotation
				JOINT RightAnkle
				{
					OFFSET -2.63873 -7.24984 0.00000
					CHANNELS 3 Zrotation Yrotation Xrotation
					JOINT RightToe
					{
						OFFSET -0.15631 -0.42945 1.84436
						CHANNELS 3 Zrotation Yrotation Xrotation
						End Site
						{
							OFFSET -0.00000 -0.00000 0.95734
						}
					}
				}
			}
		}
	}
	JOINT lowerback
	{
		OFFSET 0 0 0
		CHANNELS 3 Zrotation Yrotation Xrotation
		JOINT Chest
		{
			OFFSET -0.00436 1.89866 -0.04018
			CHANNELS 3 Zrotation Yrotation Xrotation
			JOINT Chest2
			{
				OFFSET 0.02031 1.88273 0.09634
				CHANNELS 3 Zrotation Yrotation Xrotation
				JOINT lowerneck
				{
					OFFSET 0 0 0
					CHANNELS 3 Zrotation Yrotation Xrotation
					JOINT Neck
					{
						OFFSET -0.13105 1.89371 0.23083
						CHANNELS 3 Zrotation Yrotation Xrotation
						JOINT Head
						{
							OFFSET 0.17062 1.83990 -0.54062
							CHANNELS 3 Zrotation Yrotation Xrotation
							End Site
							{
								OFFSET 0.04576 1.94782 -0.21839
							}
						}
					}
				}
				JOINT LeftCollar
				{
					OFFSET 0 0 0
					CHANNELS 3 Zrotation Yrotation Xrotation
					JOINT LeftShoulder
					{
						OFFSET 3.12424 1.09204 0.22226
CHANNELS 3 Zrotation Xrotation Yrotation
						JOINT LeftElbow
						{
OFFSET 0 -5.292770 0.000000
CHANNELS 3 Zrotation Xrotation Yrotation
							JOINT LeftWrist
							{
OFFSET 0 -2.852260 0.000000
CHANNELS 3 Zrotation Xrotation Yrotation
								JOINT lhand
								{
									OFFSET 0 0 0
CHANNELS 3 Zrotation Xrotation Yrotation
									JOINT LFingers
									{
OFFSET 0 -0.602100 0.000000
CHANNELS 3 Zrotation Xrotation Yrotation
										End Site
										{
OFFSET 0 -0.485430 0.000000
										}
									}
								}
								JOINT LThumb
								{
OFFSET 0 0.000000 0.000000
CHANNELS 3 Zrotation Xrotation Yrotation
									End Site
									{
OFFSET 0 -0.492840 0.492840
									}
								}
							}
						}
					}
				}
				JOINT RightCollar
				{
					OFFSET 0 0 0
					CHANNELS 3 Zrotation Yrotation Xrotation
					JOINT RightShoulder
					{
						OFFSET -2.91709 1.01504 0.30199
CHANNELS 3 Zrotation Xrotation Yrotation
						JOINT RightElbow
						{
OFFSET 0 -5.133040 0.000000
CHANNELS 3 Zrotation Xrotation Yrotation
							JOINT RightWrist
							{
OFFSET 0 -2.743050 0.000000
CHANNELS 3 Zrotation Xrotation Yrotation
								JOINT rhand
								{
									OFFSET 0 0 0
CHANNELS 3 Zrotation Xrotation Yrotation
									JOINT RFingers
									{
OFFSET 0 -0.767980 0.000000
CHANNELS 3 Zrotation Xrotation Yrotation
										End Site
										{
OFFSET 0 -0.619160 0.000000
										}
									}
								}
								JOINT RThumb
								{
OFFSET 0 0.000000 0.000000
CHANNELS 3 Zrotation Xrotation Yrotation
									End Site
									{
OFFSET 0 -0.628620 0.628620
									}
								}
							}
						}
					}
				}
			}
		}
	}
}
MOTION
Frames: 8
Frame Time: 0.008333333333333333
0.140100 17.437700 0.831800 -1.715700 3.927300 4.449000 0.000000 0.000000 0.000000 -17.664100 -22.754000 3.735300 0.633900 5.094100 14.177200 0.462700 8.706600 -18.852800 1.206400 -6.968300 -19.621500 0.000000 0.000000 0.000000 20.543400 4.767900 7.190300 0.000000 -0.000000 0.000000 -0.047300 -7.549000 -11.739600 -0.417000 4.145000 -11.485000 -1.639400 -0.481000 -5.132800 1.466800 -0.571900 -3.386200 2.400900 -0.245700 -0.573700 -18.925000 -12.234800 -9.021300 19.511500 -18.400400 19.012200 7.498800 -8.312900 11.367900 -0.000000 0.000000 0.000000 -2.115500 3.263100 -26.564000 7.308400 -12.425700 0.796700 9.995400 29.204000 -23.409100 0.000000 0.000000 0.000000 -7.125000 0.000000 0.000000 -19.660300 52.625600 3.808400 -0.000000 0.000000 0.000000 -1.268900 5.267200 19.868300 -11.299400 -18.745800 -1.871000 -11.806300 29.256200 -12.990700 0.000000 0.000000 0.000000 7.125000 0.000000 -0.000000 10.689300 16.860700 7.257800
0.135708 17.432426 0.850269 -1.722937 4.094579 4.406249 0.000000 0.000000 0.000000 -17.641148 -22.738782 3.742221 0.646837 5.144775 14.322043 0.493053 8.393454 -18.890267 1.139174 -6.777917 -19.059164 0.000000 0.000000 0.000000 20.573279 4.573900 7.236901 0.000000 0.000000 0.000000 -0.063002 -7.403718 -11.855772 -0.354828 3.826729 -10.589677 -1.647488 -0.507749 -5.268678 1.449312 -0.605662 -3.362207 2.384684 -0.264018 -0.471718 -19.107641 -12.278289 -9.017749 19.473978 -18.461453 19.214591 7.509160 -8.353818 11.472197 0.000000 0.000000 0.000000 -1.809378 2.690708 -26.673579 7.115797 -12.109649 0.755714 9.025544 29.412453 -22.391799 0.000000 0.000000 0.000000 -7.125000 0.000000 0.000000 -20.068762 51.504160 3.327755 0.000000 0.000000 0.000000 -1.096235 5.170768 18.791280 -11.161072 -18.534666 -1.826800 -11.468626 29.938697 -12.864724 0.000000 0.000000 0.000000 7.125000 0.000000 0.000000 10.924324 17.007729 7.387618
0.128743 17.429450 0.873233 -1.847576 4.220634 4.334774 0.000000 0.000000 0.000000 -17.553124 -22.869221 3.896143 0.656879 5.183869 14.433746 0.510361 8.357451 -19.045375 1.095632 -6.649966 -18.682997 0.000000 0.000000 0.000000 20.756569 4.404398 7.360080 0.000000 0.000000 0.000000 -0.071557 -7.376353 -11.982769 -0.380825 3.962807 -10.972168 -1.516393 -0.510167 -5.367814 1.426044 -0.612969 -3.409253 2.286114 -0.269340 -0.465836 -19.206898 -12.272959 -8.781060 19.440471 -18.481030 19.279724 7.522733 -8.387130 11.460419 0.000000 0.000000 0.000000 -1.359864 2.565078 -26.794455 7.250913 -12.331405 0.784331 9.403529 30.904210 -21.483648 0.000000 0.000000 0.000000 -7.125000 0.000000 0.000000 -19.271134 50.708479 2.800475 0.000000 0.000000 0.000000 -0.900984 5.181113 17.859635 -11.050398 -18.365465 -1.791769 -11.722821 31.750444 -13.292519 0.000000 0.000000 0.000000 7.125000 0.000000 0.000000 10.739506 16.563557 7.363481
0.125196 17.426043 0.887289 -1.760544 4.239033 4.222480 0.000000 0.000000 0.000000 -17.710670 -22.756883 4.147440 0.644061 5.134172 14.291543 0.516402 8.380073 -19.130957 1.137514 -6.773066 -19.044976 0.000000 0.000000 0.000000 20.684086 4.317746 7.522458 0.000000 0.000000 0.000000 -0.082775 -7.295188 -12.092725 -0.363009 3.870264 -10.711891 -1.618462 -0.475393 -5.384536 1.369774 -0.562151 -3.354297 2.287696 -0.244140 -0.402275 -19.197107 -12.329290 -8.854679 19.244512 -18.533247 19.462338 7.435314 -8.417761 11.529214 0.000000 0.000000 0.000000 -1.062776 2.310931 -27.235914 7.710884 -13.083093 0.885514 8.281885 31.606225 -22.009673 0.000000 0.000000 0.000000 -7.125000 0.000000 0.000000 -20.581518 51.024906 3.169785 0.000000 0.000000 0.000000 -0.801478 5.121225 18.192346 -11.098648 -18.439211 -1.806978 -11.060837 31.769603 -13.410576 0.000000 0.000000 0.000000 7.125000 0.000000 0.000000 11.188586 16.488287 7.702859
0.119338 17.425095 0.901614 -1.838929 4.328372 4.199090 0.000000 0.000000 0.000000 -17.592088 -22.739314 4.110667 0.654857 5.176028 14.411276 0.493807 8.372635 -18.879080 1.236589 -7.050805 -19.866296 0.000000 0.000000 0.000000 20.806803 4.211991 7.566872 0.000000 0.000000 0.000000 -0.084128 -7.264713 -12.079893 -0.366762 3.890075 -10.767736 -1.653319 -0.520801 -5.436106 1.426737 -0.620330 -3.407403 2.363037 -0.271386 -0.424519 -19.246280 -12.308219 -8.744413 19.135008 -18.509218 19.602472 7.416411 -8.424471 11.545375 0.000000 0.000000 0.000000 -1.054918 2.088754 -28.626984 7.947708 -13.468033 0.939865 7.634012 30.050523 -22.478253 0.000000 0.000000 0.000000 -7.125000 0.000000 0.000000 -21.428226 51.357462 3.491733 0.000000 0.000000 0.000000 -0.863722 5.169207 18.590969 -11.177702 -18.560048 -1.832113 -10.625537 31.999109 -13.632617 0.000000 0.000000 0.000000 7.125000 0.000000 0.000000 11.479316 16.294501 7.960433
0.118331 17.421368 0.917207 -1.918364 4.317837 4.197745 0.000000 0.000000 0.000000 -17.513650 -22.710511 4.053555 0.669180 5.231297 14.569507 0.500170 8.393164 -18.967163 1.318958 -7.272507 -20.525872 0.000000 0.000000 0.000000 20.908813 4.209857 7.619731 0.000000 0.000000 0.000000 -0.089021 -7.274165 -12.182663 -0.369617 3.905083 -10.809868 -1.623607 -0.507230 -5.479610 1.456073 -0.602869 -3.478582 2.377515 -0.261540 -0.474476 -19.270937 -12.291602 -8.694472 19.081921 -18.512239 19.800308 7.409889 -8.432624 11.606408 0.000000 0.000000 0.000000 -1.205328 2.087193 -30.248543 8.312786 -14.058648 1.026779 8.476820 28.321629 -22.281650 0.000000 0.000000 0.000000 -7.125000 0.000000 0.000000 -20.533091 51.311178 3.310210 0.000000 0.000000 0.000000 -0.947572 5.216115 18.688166 -11.243692 -18.660777 -1.853129 -11.508086 32.125182 -13.523928 0.000000 0.000000 0.000000 7.125000 0.000000 0.000000 10.880635 16.346608 7.516707
0.113086 17.420929 0.929650 -2.178566 4.350289 4.228334 0.000000 0.000000 0.000000 -17.183886 -22.727140 3.922982 0.688407 5.304370 14.778775 0.533357 8.245365 -19.190347 1.303069 -7.231580 -20.403397 0.000000 0.000000 0.000000 21.222793 4.200860 7.604960 0.000000 0.000000 0.000000 -0.085272 -7.296730 -12.139973 -0.388084 4.000140 -11.077187 -1.451019 -0.550127 -5.469951 1.558314 -0.666905 -3.606950 2.383381 -0.292549 -0.609275 -19.276807 -12.196844 -8.490838 18.975884 -18.388836 19.862743 7.408320 -8.398400 11.547108 0.000000 0.000000 0.000000 -1.562504 2.091330 -30.372818 8.386418 -14.177288 1.044742 8.515339 27.814412 -21.796810 0.000000 0.000000 0.000000 -7.125000 0.000000 0.000000 -20.257449 50.862647 3.033079 0.000000 0.000000 0.000000 -1.058625 5.234468 18.807311 -11.195988 -18.588061 -1.837879 -11.168456 32.551022 -13.357829 0.000000 0.000000 0.000000 7.125000 0.000000 0.000000 11.116627 16.534115 7.639849
0.112008 17.419992 0.951433 -1.912033 4.274685 4.354902 0.000000 0.000000 0.000000 -17.484237 -22.737770 4.083965 0.660518 5.197987 14.474228 0.496736 8.461057 -18.993180 1.325358 -7.290815 -20.579786 0.000000 0.000000 0.000000 20.928126 4.267394 7.591852 0.000000 0.000000 0.000000 -0.083301 -7.324740 -12.138957 -0.363247 3.871503 -10.715594 -1.685292 -0.535933 -5.632602 1.432864 -0.635442 -3.737398 2.387071 -0.272434 -0.654247 -19.252328 -12.191459 -8.391627 18.809315 -18.392993 20.053179 7.350077 -8.416025 11.575784 0.000000 0.000000 0.000000 -1.757835 2.408261 -31.345292 8.578831 -14.486630 1.092316 8.356646 26.980554 -21.130236 0.000000 0.000000 0.000000 -7.125000 0.000000 0.000000 -20.087558 50.211341 2.675016 0.000000 0.000000 0.000000 -0.952512 5.430576 18.552745 -11.150183 -18.518108 -1.823300 -11.609463 32.828197 -13.486135 0.000000 0.000000 0.000000 7.125000 0.000000 0.000000 10.812409 16.377736 7.460261
